G04 #@! TF.GenerationSoftware,KiCad,Pcbnew,(5.1.4-0)*
G04 #@! TF.CreationDate,2020-11-08T11:40:52+08:00*
G04 #@! TF.ProjectId,plate,706c6174-652e-46b6-9963-61645f706362,rev?*
G04 #@! TF.SameCoordinates,Original*
G04 #@! TF.FileFunction,Soldermask,Bot*
G04 #@! TF.FilePolarity,Negative*
%FSLAX46Y46*%
G04 Gerber Fmt 4.6, Leading zero omitted, Abs format (unit mm)*
G04 Created by KiCad (PCBNEW (5.1.4-0)) date 2020-11-08 11:40:52*
%MOMM*%
%LPD*%
G04 APERTURE LIST*
%ADD10C,0.100000*%
G04 APERTURE END LIST*
D10*
G36*
X214407437Y-80966743D02*
G01*
X214574769Y-81017503D01*
X214728975Y-81099928D01*
X214864143Y-81210857D01*
X214975072Y-81346025D01*
X215057497Y-81500231D01*
X215108257Y-81667563D01*
X215126000Y-81847716D01*
X215126000Y-95952284D01*
X215108257Y-96132437D01*
X215057497Y-96299769D01*
X214975072Y-96453975D01*
X214864143Y-96589143D01*
X214728975Y-96700072D01*
X214574769Y-96782497D01*
X214407437Y-96833257D01*
X214227284Y-96851000D01*
X198522716Y-96851000D01*
X198342563Y-96833257D01*
X198175231Y-96782497D01*
X198021025Y-96700072D01*
X197885857Y-96589143D01*
X197774928Y-96453975D01*
X197692503Y-96299769D01*
X197641743Y-96132437D01*
X197624000Y-95952284D01*
X197624000Y-81847716D01*
X197641743Y-81667563D01*
X197692503Y-81500231D01*
X197774928Y-81346025D01*
X197885857Y-81210857D01*
X198021025Y-81099928D01*
X198175231Y-81017503D01*
X198342563Y-80966743D01*
X198522716Y-80949000D01*
X214227284Y-80949000D01*
X214407437Y-80966743D01*
X214407437Y-80966743D01*
G37*
G36*
X195357437Y-80966743D02*
G01*
X195524769Y-81017503D01*
X195678975Y-81099928D01*
X195814143Y-81210857D01*
X195925072Y-81346025D01*
X196007497Y-81500231D01*
X196058257Y-81667563D01*
X196076000Y-81847716D01*
X196076000Y-95952284D01*
X196058257Y-96132437D01*
X196007497Y-96299769D01*
X195925072Y-96453975D01*
X195814143Y-96589143D01*
X195678975Y-96700072D01*
X195524769Y-96782497D01*
X195357437Y-96833257D01*
X195177284Y-96851000D01*
X179472716Y-96851000D01*
X179292563Y-96833257D01*
X179125231Y-96782497D01*
X178971025Y-96700072D01*
X178835857Y-96589143D01*
X178724928Y-96453975D01*
X178642503Y-96299769D01*
X178591743Y-96132437D01*
X178574000Y-95952284D01*
X178574000Y-81847716D01*
X178591743Y-81667563D01*
X178642503Y-81500231D01*
X178724928Y-81346025D01*
X178835857Y-81210857D01*
X178971025Y-81099928D01*
X179125231Y-81017503D01*
X179292563Y-80966743D01*
X179472716Y-80949000D01*
X195177284Y-80949000D01*
X195357437Y-80966743D01*
X195357437Y-80966743D01*
G37*
G36*
X176307437Y-80966743D02*
G01*
X176474769Y-81017503D01*
X176628975Y-81099928D01*
X176764143Y-81210857D01*
X176875072Y-81346025D01*
X176957497Y-81500231D01*
X177008257Y-81667563D01*
X177026000Y-81847716D01*
X177026000Y-95952284D01*
X177008257Y-96132437D01*
X176957497Y-96299769D01*
X176875072Y-96453975D01*
X176764143Y-96589143D01*
X176628975Y-96700072D01*
X176474769Y-96782497D01*
X176307437Y-96833257D01*
X176127284Y-96851000D01*
X160422716Y-96851000D01*
X160242563Y-96833257D01*
X160075231Y-96782497D01*
X159921025Y-96700072D01*
X159785857Y-96589143D01*
X159674928Y-96453975D01*
X159592503Y-96299769D01*
X159541743Y-96132437D01*
X159524000Y-95952284D01*
X159524000Y-81847716D01*
X159541743Y-81667563D01*
X159592503Y-81500231D01*
X159674928Y-81346025D01*
X159785857Y-81210857D01*
X159921025Y-81099928D01*
X160075231Y-81017503D01*
X160242563Y-80966743D01*
X160422716Y-80949000D01*
X176127284Y-80949000D01*
X176307437Y-80966743D01*
X176307437Y-80966743D01*
G37*
M02*
