G04 #@! TF.GenerationSoftware,KiCad,Pcbnew,(5.1.4-0)*
G04 #@! TF.CreationDate,2020-11-08T11:40:52+08:00*
G04 #@! TF.ProjectId,plate,706c6174-652e-46b6-9963-61645f706362,rev?*
G04 #@! TF.SameCoordinates,Original*
G04 #@! TF.FileFunction,Profile,NP*
%FSLAX46Y46*%
G04 Gerber Fmt 4.6, Leading zero omitted, Abs format (unit mm)*
G04 Created by KiCad (PCBNEW (5.1.4-0)) date 2020-11-08 11:40:52*
%MOMM*%
%LPD*%
G04 APERTURE LIST*
%ADD10C,0.050000*%
G04 APERTURE END LIST*
D10*
X130968750Y-112712500D02*
X130175000Y-76993750D01*
X247650000Y-120650000D02*
X130968750Y-112712500D01*
X249237500Y-70643750D02*
X247650000Y-120650000D01*
X130175000Y-76993750D02*
X249237500Y-70643750D01*
X199375000Y-95900000D02*
X213375000Y-95900000D01*
X199375000Y-81900000D02*
X213375000Y-81900000D01*
X214125000Y-95300000D02*
X214125000Y-82500000D01*
X198625000Y-95300000D02*
X198625000Y-82500000D01*
X198625000Y-95300000D02*
X199375000Y-95300000D01*
X199375000Y-95300000D02*
X199375000Y-95900000D01*
X213375000Y-95900000D02*
X213375000Y-95300000D01*
X213375000Y-95300000D02*
X214125000Y-95300000D01*
X199375000Y-81900000D02*
X199375000Y-82500000D01*
X199375000Y-82500000D02*
X198625000Y-82500000D01*
X214125000Y-82500000D02*
X213375000Y-82500000D01*
X213375000Y-82500000D02*
X213375000Y-81900000D01*
X180325000Y-95900000D02*
X194325000Y-95900000D01*
X180325000Y-81900000D02*
X194325000Y-81900000D01*
X195075000Y-95300000D02*
X195075000Y-82500000D01*
X179575000Y-95300000D02*
X179575000Y-82500000D01*
X179575000Y-95300000D02*
X180325000Y-95300000D01*
X180325000Y-95300000D02*
X180325000Y-95900000D01*
X194325000Y-95900000D02*
X194325000Y-95300000D01*
X194325000Y-95300000D02*
X195075000Y-95300000D01*
X180325000Y-81900000D02*
X180325000Y-82500000D01*
X180325000Y-82500000D02*
X179575000Y-82500000D01*
X195075000Y-82500000D02*
X194325000Y-82500000D01*
X194325000Y-82500000D02*
X194325000Y-81900000D01*
X175275000Y-82500000D02*
X175275000Y-81900000D01*
X176025000Y-82500000D02*
X175275000Y-82500000D01*
X161275000Y-82500000D02*
X160525000Y-82500000D01*
X161275000Y-81900000D02*
X161275000Y-82500000D01*
X175275000Y-95300000D02*
X176025000Y-95300000D01*
X175275000Y-95900000D02*
X175275000Y-95300000D01*
X161275000Y-95300000D02*
X161275000Y-95900000D01*
X160525000Y-95300000D02*
X161275000Y-95300000D01*
X160525000Y-95300000D02*
X160525000Y-82500000D01*
X176025000Y-95300000D02*
X176025000Y-82500000D01*
X161275000Y-81900000D02*
X175275000Y-81900000D01*
X161275000Y-95900000D02*
X175275000Y-95900000D01*
M02*
